<svg width="24" height="24" viewBox="0 0 24 24" fill="none" xmlns="http://www.w3.org/2000/svg">
<path d="M16 1C16.5523 1 17 1.44772 17 2V4H18C20.2091 4 22 5.79086 22 8V18C22 20.2091 20.2091 22 18 22H6C3.79086 22 2 20.2091 2 18V8C2 5.79086 3.79086 4 6 4H7V2C7 1.44772 7.44772 1 8 1C8.55228 1 9 1.44772 9 2V4H15V2C15 1.44772 15.4477 1 16 1ZM4 12V18C4 19.1046 4.89543 20 6 20H18C19.1046 20 20 19.1046 20 18V12H4ZM14.2002 13.4004C14.5315 12.9586 15.1578 12.869 15.5996 13.2002C16.0414 13.5315 16.131 14.1578 15.7998 14.5996L12.7998 18.5996C12.626 18.8314 12.3603 18.9764 12.0713 18.9971C11.7821 19.0176 11.498 18.912 11.293 18.707L9.29297 16.707C8.90244 16.3165 8.90244 15.6835 9.29297 15.293C9.68349 14.9024 10.3165 14.9024 10.707 15.293L11.8916 16.4775L14.2002 13.4004ZM6 6C4.89543 6 4 6.89543 4 8V10H20V8C20 6.89543 19.1046 6 18 6H17V7C17 7.55228 16.5523 8 16 8C15.4477 8 15 7.55228 15 7V6H9V7C9 7.55228 8.55228 8 8 8C7.44772 8 7 7.55228 7 7V6H6Z" fill="white"/>
</svg>
